<svg xmlns="http://www.w3.org/2000/svg" width="128" height="128" viewBox="0 0 128 128" version="1.1"><path d="M 95.235 75.957 L 87.970 88.830 93.630 98.415 L 99.289 108 113.718 108 C 125.135 108, 128.079 107.726, 127.823 106.686 C 127.359 104.800, 103.599 63.051, 103 63.069 C 102.725 63.077, 99.231 68.876, 95.235 75.957 M 0 119.522 L 0 125.015 64.250 124.757 L 128.500 124.500 128.793 119 L 129.085 113.500 64.543 113.764 L 0 114.029 0 119.522" stroke="none" fill="#0493fc" fill-rule="evenodd"/><path d="M 91.996 13.250 C 89.120 18.337, 83.729 27.675, 80.016 34 C 76.303 40.325, 71.245 49.021, 68.777 53.324 L 64.289 61.147 54.517 45.501 C 49.142 36.896, 44.402 30.225, 43.984 30.678 C 43.164 31.564, 4.387 99.363, 1.619 104.750 L -0.051 108 14.770 108 L 29.592 108 35.960 96.750 C 39.463 90.563, 43.201 84.240, 44.268 82.700 L 46.208 79.899 54.223 92.700 C 58.631 99.740, 62.786 106.085, 63.455 106.801 C 64.736 108.169, 71.143 97.684, 103.966 40.500 C 110.375 29.333, 121.590 9.961, 123.215 7.250 L 125.163 4 111.194 4 L 97.225 4 91.996 13.250" stroke="none" fill="#fcfcfc" fill-rule="evenodd"/></svg>